<svg xmlns="http://www.w3.org/2000/svg" xmlns:xlink="http://www.w3.org/1999/xlink" width="1080" zoomAndPan="magnify" viewBox="0 0 810 809.999993" height="1080" preserveAspectRatio="xMidYMid meet" version="1.0"><defs><g/><clipPath id="137967b75d"><rect x="0" width="486" y="0" height="772"/></clipPath></defs><g transform="matrix(1, 0, 0, 1, 162, 16)"><g clip-path="url(#137967b75d)"><g fill="#ffffff" fill-opacity="1"><g transform="translate(0.277656, 621.34956)"><g><path d="M 416.609375 14.5 L 393.15625 14.5 C 386.363281 0.507812 379.570312 -10.132812 372.78125 -17.4375 C 366 -24.738281 359.316406 -28.390625 352.734375 -28.390625 C 347.378906 -28.390625 340.078125 -25.40625 330.828125 -19.4375 C 328.972656 -18.207031 327.425781 -17.179688 326.1875 -16.359375 C 306.851562 -4.835938 289.519531 3.285156 274.1875 8.015625 C 258.863281 12.753906 242.867188 15.125 226.203125 15.125 C 201.722656 15.125 178.164062 10.1875 155.53125 0.3125 C 132.90625 -9.5625 112.4375 -23.757812 94.125 -42.28125 C 71.90625 -65.320312 54.878906 -91.960938 43.046875 -122.203125 C 31.222656 -152.453125 25.3125 -184.859375 25.3125 -219.421875 C 25.3125 -254.390625 30.96875 -287.351562 42.28125 -318.3125 C 53.59375 -349.28125 69.84375 -376.285156 91.03125 -399.328125 C 111.40625 -421.753906 133.578125 -438.414062 157.546875 -449.3125 C 181.515625 -460.21875 207.585938 -465.671875 235.765625 -465.671875 C 262.515625 -465.671875 289.675781 -459.8125 317.25 -448.09375 L 318.484375 -447.46875 C 320.535156 -446.644531 323.207031 -445.515625 326.5 -444.078125 C 339.050781 -438.722656 347.382812 -436.046875 351.5 -436.046875 C 356.4375 -436.046875 361.164062 -438.460938 365.6875 -443.296875 C 370.21875 -448.140625 374.742188 -455.597656 379.265625 -465.671875 L 402.109375 -465.671875 L 407.65625 -294.40625 L 383.59375 -294.40625 C 367.34375 -345.84375 348.003906 -383.90625 325.578125 -408.59375 C 303.148438 -433.28125 277.019531 -445.625 247.1875 -445.625 C 208.300781 -445.625 179.703125 -427.109375 161.390625 -390.078125 C 143.085938 -353.046875 133.9375 -295.023438 133.9375 -216.015625 C 133.9375 -141.335938 141.90625 -88.050781 157.84375 -56.15625 C 173.789062 -24.269531 199.972656 -8.328125 236.390625 -8.328125 C 263.128906 -8.328125 283.289062 -16.039062 296.875 -31.46875 C 310.457031 -46.90625 317.25 -69.742188 317.25 -99.984375 L 317.25 -132.703125 C 317.25 -150.191406 313.90625 -161.710938 307.21875 -167.265625 C 300.53125 -172.816406 285.351562 -175.59375 261.6875 -175.59375 L 252.75 -175.59375 L 252.75 -197.203125 L 469.078125 -197.203125 L 469.078125 -174.984375 C 467.628906 -174.984375 465.828125 -175.082031 463.671875 -175.28125 C 461.515625 -175.488281 459.921875 -175.59375 458.890625 -175.59375 C 443.867188 -175.59375 433.066406 -172.554688 426.484375 -166.484375 C 419.898438 -160.421875 416.609375 -150.394531 416.609375 -136.40625 Z M 416.609375 14.5 "/></g></g></g></g></g></svg>